<svg width="18" height="16" viewBox="0 0 18 16" fill="none" xmlns="http://www.w3.org/2000/svg">
<path d="M7.7327 15.7885C8.0326 16.0742 8.5074 16.0626 8.7931 15.7627C9.0788 15.4628 9.0672 14.988 8.7673 14.7023L2.51587 8.74775H17.25C17.6642 8.74775 18 8.41195 18 7.99775C18 7.58355 17.6642 7.24775 17.25 7.24775H2.51577L8.7673 1.29307C9.0672 1.00738 9.0787 0.532647 8.7931 0.232717C8.5074 -0.0672031 8.0326 -0.0787533 7.7327 0.206937L0.31379 7.27365C0.14486 7.43455 0.0449101 7.63975 0.0139301 7.85315C0.00479008 7.89995 0 7.94835 0 7.99775C0 8.04735 0.00480991 8.09575 0.0139799 8.14265C0.0450199 8.35595 0.14496 8.56105 0.31379 8.72185L7.7327 15.7885Z" fill="#454545"/>
</svg>
