<?xml version="1.0" standalone="no"?>
<!DOCTYPE svg PUBLIC "-//W3C//DTD SVG 20010904//EN"
 "http://www.w3.org/TR/2001/REC-SVG-20010904/DTD/svg10.dtd">
<svg version="1.0" xmlns="http://www.w3.org/2000/svg"
 width="30" height="30" viewBox="0 0 512.000000 512.000000"
 preserveAspectRatio="xMidYMid meet">

<g transform="translate(0.000000,512.000000) scale(0.100000,-0.100000)"
fill="#fff" stroke="none">
<path d="M95 4946 c-111 -50 -127 -197 -29 -272 l37 -29 341 -5 340 -5 412
-1542 c227 -849 420 -1557 431 -1575 10 -19 38 -43 63 -56 l45 -22 1322 2
c1317 3 1322 3 1349 24 53 39 69 71 69 134 0 63 -16 95 -69 134 -27 21 -33 21
-1275 24 l-1248 2 -46 172 c-26 95 -45 174 -43 176 3 2 642 32 1423 67 780 35
1434 67 1453 70 48 9 93 45 113 92 24 56 340 1810 333 1851 -7 44 -46 95 -89
116 -32 15 -194 16 -1931 16 l-1895 0 -15 53 c-8 28 -40 146 -70 260 -31 114
-62 220 -70 235 -19 35 -54 68 -89 81 -45 17 -823 14 -862 -3z m4671 -963 c-3
-10 -62 -333 -131 -718 -70 -385 -129 -703 -133 -706 -7 -7 -2791 -133 -2797
-128 -3 4 -405 1508 -413 1547 l-4 22 1742 0 c1654 0 1741 -1 1736 -17z"/>
<path d="M2014 3666 c-17 -8 -44 -31 -60 -52 l-29 -37 -3 -364 c-3 -406 -3
-409 66 -461 29 -22 46 -27 93 -27 62 0 94 17 133 69 20 27 21 39 21 406 0
367 -1 379 -21 406 -11 15 -32 37 -46 47 -34 25 -113 32 -154 13z"/>
<path d="M2974 3666 c-17 -8 -44 -31 -60 -52 l-29 -37 -3 -364 c-3 -406 -3
-409 66 -461 29 -22 46 -27 93 -27 62 0 94 17 133 69 20 27 21 39 21 406 0
367 -1 379 -21 406 -11 15 -32 37 -46 47 -34 25 -113 32 -154 13z"/>
<path d="M3934 3666 c-17 -8 -44 -31 -60 -52 l-29 -37 -3 -364 c-3 -406 -3
-409 66 -461 29 -22 46 -27 93 -27 62 0 94 17 133 69 20 27 21 39 21 406 0
367 -1 379 -21 406 -11 15 -32 37 -46 47 -34 25 -113 32 -154 13z"/>
<path d="M1973 1105 c-86 -19 -157 -59 -229 -130 -189 -187 -189 -482 2 -673
187 -187 482 -186 670 2 188 189 189 483 1 670 -72 73 -142 112 -236 132 -80
17 -127 17 -208 -1z m195 -332 c51 -38 67 -70 67 -133 0 -97 -58 -155 -155
-155 -63 0 -95 16 -134 69 -32 43 -29 132 6 178 15 19 42 42 60 52 42 21 120
16 156 -11z"/>
<path d="M3893 1105 c-86 -19 -157 -59 -229 -130 -189 -187 -189 -482 2 -673
187 -187 482 -186 670 2 188 189 189 483 1 670 -72 73 -142 112 -236 132 -80
17 -127 17 -208 -1z m195 -332 c51 -38 67 -70 67 -133 0 -97 -58 -155 -155
-155 -63 0 -95 16 -134 69 -32 43 -29 132 6 178 15 19 42 42 60 52 42 21 120
16 156 -11z"/>
</g>
</svg>
