<svg width="37" height="37" viewBox="0 0 37 37" fill="none" xmlns="http://www.w3.org/2000/svg">
<path d="M32.3751 5.55005H4.6251C2.65947 5.55005 0.98291 7.1688 0.98291 9.19224V27.9235C0.98291 29.8891 2.60166 31.5657 4.6251 31.5657H32.3751C34.3407 31.5657 36.0173 29.9469 36.0173 27.9235V9.13442C36.0173 7.1688 34.3407 5.55005 32.3751 5.55005ZM32.3751 8.15161C32.4329 8.15161 32.4907 8.15161 32.5485 8.15161L18.5001 17.1704L4.45166 8.15161C4.50947 8.15161 4.56728 8.15161 4.6251 8.15161H32.3751ZM32.3751 28.8485H4.6251C4.04697 28.8485 3.58447 28.386 3.58447 27.8079V10.6954L17.1126 19.3672C17.5173 19.6563 17.9798 19.7719 18.4423 19.7719C18.9048 19.7719 19.3673 19.6563 19.772 19.3672L33.3001 10.6954V27.8657C33.4157 28.4438 32.9532 28.8485 32.3751 28.8485Z" fill="#454545"/>
</svg>
