<svg width="38" height="38" viewBox="0 0 38 38" fill="none" xmlns="http://www.w3.org/2000/svg">
<path d="M15.3924 0.492216C17.0113 -0.164072 18.822 -0.164072 20.4409 0.492216L33.8759 5.93883C35.0592 6.41851 35.8333 7.56778 35.8333 8.84453V18.9419C35.0373 18.1781 34.133 17.5263 33.1458 17.0117V9.91665L19.261 15.2777V19.3952C18.0208 20.7221 17.0873 22.3392 16.5735 24.1338V15.2754L2.6875 9.87521V26.139C2.6875 26.3214 2.7981 26.4855 2.96713 26.5541L16.4022 32.0006C16.4588 32.0237 16.5161 32.0454 16.5735 32.0657V32.0635L16.9115 32.2009C17.0165 32.2438 17.1239 32.2796 17.2323 32.3084C17.6771 33.2516 18.2449 34.1252 18.915 34.909C17.7339 35.0864 16.5168 34.9472 15.3924 34.4912L1.95743 29.0447C0.774197 28.5649 0 27.4158 0 26.139V8.84453C0 7.56778 0.774197 6.41851 1.95743 5.93883L15.3924 0.492216ZM19.4312 2.98283C18.4599 2.58906 17.3734 2.58906 16.4022 2.98283L12.9739 4.37263L26.4601 9.61723L31.2418 7.77092L19.4312 2.98283ZM4.64038 7.7511L17.919 12.915L22.7393 11.0538L9.3436 5.84439L4.64038 7.7511ZM37.625 27.3457C37.625 21.9033 33.2132 17.4915 27.7708 17.4915C22.3285 17.4915 17.9167 21.9033 17.9167 27.3457C17.9167 32.7879 22.3285 37.1999 27.7708 37.1999C33.2132 37.1999 37.625 32.7879 37.625 27.3457ZM27.8468 21.0781L28.0003 21.1046L28.113 21.1426L28.234 21.2037L28.3191 21.2612L32.8835 25.8163L32.9871 25.9405C33.229 26.2895 33.1944 26.7724 32.8835 27.0832C32.5725 27.3943 32.0898 27.4288 31.7406 27.187L31.6165 27.0832L28.6649 24.1314L28.6667 33.6165L28.6522 33.7776C28.5859 34.1431 28.2976 34.4316 27.9319 34.4979L27.7708 34.5124L27.6098 34.4979C27.2441 34.4316 26.9558 34.1431 26.8895 33.7776L26.875 33.6165L26.8732 24.135L23.9252 27.0832L23.801 27.187C23.4956 27.3986 23.0878 27.3986 22.7823 27.187L22.6581 27.0832L22.5546 26.9592C22.343 26.6538 22.343 26.246 22.5546 25.9405L22.6581 25.8163L27.1597 21.3157L27.2607 21.234L27.3921 21.1585L27.5413 21.1046L27.649 21.0838L27.7493 21.0749L27.8468 21.0781Z" fill="#454545"/>
</svg>
