<svg width="28" height="39" viewBox="0 0 28 39" fill="none" xmlns="http://www.w3.org/2000/svg">
<path d="M13.7083 32.3125C12.8972 32.3125 12.2396 32.9701 12.2396 33.7812C12.2396 34.5924 12.8972 35.25 13.7083 35.25C14.5195 35.25 15.1771 34.5924 15.1771 33.7812C15.1771 32.9701 14.5195 32.3125 13.7083 32.3125ZM24.4792 15.6667V13.7083C24.4792 7.75976 19.657 2.9375 13.7083 2.9375C7.75976 2.9375 2.9375 7.75976 2.9375 13.7083V15.6667H7.83333C8.91488 15.6667 9.79167 16.5434 9.79167 17.625V25.4583C9.79167 26.5399 8.91488 27.4167 7.83333 27.4167H2.9375V27.9062C2.9375 30.2384 4.74927 32.1472 7.04207 32.3023L7.34375 32.3125L9.55299 32.3119C10.1581 30.6009 11.7899 29.375 13.7083 29.375C16.1418 29.375 18.1146 31.3478 18.1146 33.7812C18.1146 36.2147 16.1418 38.1875 13.7083 38.1875C11.7892 38.1875 10.1567 36.9606 9.55228 35.2484L7.34375 35.25C3.41874 35.25 0.212929 32.1707 0.0101832 28.2964L0 27.9062V13.7083C0 6.13744 6.13744 0 13.7083 0C21.2792 0 27.4167 6.13744 27.4167 13.7083V23.5C27.4167 25.5649 25.8189 27.2565 23.7924 27.4059L23.5 27.4167H19.5833C18.5791 27.4167 17.7513 26.6608 17.6381 25.6867L17.625 25.4583V17.625C17.625 16.6208 18.3809 15.793 19.355 15.6798L19.5833 15.6667H24.4792ZM6.85417 18.6042H2.9375V24.4792H6.85417V18.6042ZM24.4792 18.6042H20.5625V24.4792H23.5C23.9808 24.4792 24.3805 24.1327 24.4633 23.6761L24.4792 23.5V18.6042Z" fill="#454545"/>
</svg>
