<svg width="33" height="39" viewBox="0 0 33 39" fill="none" xmlns="http://www.w3.org/2000/svg">
<path d="M4.31457 0C1.9317 0 0 1.9317 0 4.31457V34.0371C0 36.4199 1.9317 38.3517 4.31457 38.3517H18.6972C21.0666 38.3517 22.9899 36.442 23.0118 34.0778L23.0122 34.0373V31.1609C23.0122 30.3667 22.3684 29.7228 21.574 29.7228C20.7038 29.7228 20.1563 29.4886 19.7776 29.1843C19.3787 28.8635 19.0499 28.3687 18.7977 27.6709C18.275 26.2232 18.2184 24.3142 18.2182 22.5316C18.2182 22.1675 18.0799 21.8167 17.8314 21.5506C17.6851 21.3937 17.5869 21.2875 17.5162 21.2112C17.3428 21.0238 17.3346 21.015 17.1892 20.8781C17.0475 20.7448 16.6147 20.3316 14.9207 18.6383C14.0223 17.7403 13.5241 16.9804 13.3612 16.4C13.2866 16.134 13.2904 15.9355 13.3312 15.7758C13.3719 15.6174 13.4716 15.4093 13.7238 15.1571C13.9757 14.9049 14.1834 14.8058 14.3408 14.7655C14.4994 14.7248 14.6973 14.721 14.9627 14.7959C15.5428 14.9595 16.3022 15.4586 17.2009 16.358C18.2357 17.3933 19.219 18.3657 20.0997 19.2368C21.5561 20.6769 22.7337 21.8415 23.3991 22.5544C23.941 23.1351 24.8511 23.1663 25.4318 22.6244C26.0124 22.0825 26.0439 21.1724 25.502 20.5918C24.9562 20.0071 24.0793 19.1296 23.0114 18.0713L23.0112 11.6212L28.4598 17.0698C29.2689 17.8788 29.7235 18.9762 29.7235 20.1205V36.9135C29.7235 37.7078 30.3674 38.3517 31.1617 38.3517C31.956 38.3517 32.5999 37.7078 32.5999 36.9135V20.1205C32.5999 18.2134 31.8423 16.3844 30.4936 15.0358L23.0112 7.55325L23.011 4.31445C23.011 1.93162 21.0794 0 18.6965 0H4.31457ZM16.0924 28.6479C16.278 29.1621 16.5175 29.6723 16.8283 30.1479C15.3815 30.8444 14.3832 32.3243 14.3832 34.0375V35.4753H8.63038V34.0375C8.63038 31.6545 6.69868 29.7229 4.31581 29.7229H2.87638V8.6285H4.31581C6.69868 8.6285 8.63038 6.6968 8.63038 4.31393V2.87638H14.3832V4.31393C14.3832 6.6968 16.3148 8.6285 18.6978 8.6285H20.1348L20.135 15.222C19.8388 14.9272 19.5383 14.6277 19.2355 14.3247C18.2171 13.3057 17.0335 12.3913 15.7434 12.0275C15.0738 11.8386 14.3547 11.7927 13.6271 11.979C13.1939 12.0899 12.7891 12.2752 12.4144 12.525C12.1174 12.4849 11.8144 12.4641 11.5065 12.4641C7.7997 12.4641 4.79483 15.469 4.79483 19.1757C4.79483 22.8823 7.7997 25.8872 11.5065 25.8872C12.9523 25.8872 14.2916 25.4299 15.3873 24.6521C15.458 25.9641 15.6375 27.3887 16.0924 28.6479ZM7.6712 19.1757C7.6712 17.4197 8.85142 15.9392 10.4619 15.4845C10.3816 16.0663 10.4403 16.6377 10.5919 17.1773C10.9544 18.4686 11.8675 19.6535 12.8873 20.6727C13.4275 21.2127 13.8423 21.6252 14.1623 21.9423C13.4733 22.6041 12.5374 23.0108 11.5065 23.0108C9.38826 23.0108 7.6712 21.2938 7.6712 19.1757ZM2.87638 4.31457C2.87638 3.52028 3.52028 2.87638 4.31457 2.87638H5.754V4.31393C5.754 5.10823 5.11011 5.75212 4.31581 5.75212H2.87638V4.31457ZM17.2596 2.87638H18.6965C19.4907 2.87638 20.1346 3.52024 20.1346 4.31453L20.1348 5.75212H18.6978C17.9033 5.75212 17.2596 5.10823 17.2596 4.31393V2.87638ZM20.1354 32.5993V34.0371C20.1356 34.8314 19.4917 35.4753 18.6972 35.4753H17.2596V34.0375C17.2596 33.2431 17.9033 32.5993 18.6978 32.5993H20.1354ZM5.754 35.4753H4.31457C3.52028 35.4753 2.87638 34.8314 2.87638 34.0371V32.5993H4.31581C5.11011 32.5993 5.754 33.2431 5.754 34.0375V35.4753Z" fill="#454545"/>
</svg>
