<?xml version="1.0" standalone="no"?>
<!DOCTYPE svg PUBLIC "-//W3C//DTD SVG 20010904//EN"
 "http://www.w3.org/TR/2001/REC-SVG-20010904/DTD/svg10.dtd">
<svg version="1.0" xmlns="http://www.w3.org/2000/svg"
 width="512.000000pt" height="512.000000pt" viewBox="0 0 512.000000 512.000000"
 preserveAspectRatio="xMidYMid meet">

<g transform="translate(0.000000,512.000000) scale(0.100000,-0.100000)"
fill="#000000" stroke="none">
<path d="M1290 5111 c-90 -28 -174 -103 -206 -187 -18 -47 -19 -91 -19 -1150
0 -1059 1 -1103 19 -1122 42 -48 124 -31 145 29 8 23 11 345 11 1101 0 1178
-4 1104 60 1142 26 15 132 16 1189 16 l1161 0 55 -50 c57 -51 80 -59 118 -38
76 40 58 129 -41 205 -87 66 -24 63 -1306 62 -639 0 -1172 -4 -1186 -8z"/>
<path d="M2174 4669 c-86 -25 -181 -122 -204 -209 -7 -26 -10 -327 -8 -892 l3
-853 27 -51 c33 -63 103 -126 166 -151 44 -17 115 -18 1297 -21 879 -2 1269 0
1315 8 79 14 135 45 188 106 76 86 73 37 70 1000 l-3 859 -29 53 c-33 60 -76
101 -139 134 l-42 23 -1305 2 c-766 1 -1318 -2 -1336 -8z m2605 -177 c66 -33
76 -57 79 -208 l4 -134 -1367 0 -1367 0 4 134 c3 151 13 175 79 208 32 17 114
18 1284 18 1170 0 1252 -1 1284 -18z m81 -1114 c0 -576 -1 -593 -20 -634 -39
-80 69 -75 -1358 -72 l-1270 3 -27 25 c-56 51 -55 41 -55 680 l0 590 1365 0
1365 0 0 -592z"/>
<path d="M3320 3625 c-34 -37 -33 -90 4 -121 l27 -24 565 0 566 0 29 29 c16
16 29 39 29 51 0 29 -26 76 -45 84 -9 3 -272 6 -584 6 l-568 0 -23 -25z"/>
<path d="M3324 3146 c-39 -33 -39 -89 0 -122 l27 -24 568 0 c556 0 568 0 589
20 41 38 40 92 -1 130 -20 19 -38 20 -588 20 l-568 0 -27 -24z"/>
<path d="M379 4391 c-28 -28 -29 -33 -29 -124 0 -79 3 -98 20 -120 36 -46 108
-44 139 5 17 27 25 114 16 173 -13 92 -87 125 -146 66z"/>
<path d="M29 4041 c-48 -48 -36 -111 26 -137 40 -16 134 -18 187 -3 70 19 87
104 31 149 -22 17 -41 20 -120 20 -91 0 -96 -1 -124 -29z"/>
<path d="M600 4042 c-56 -56 -28 -132 55 -148 67 -12 164 1 191 27 30 28 33
86 5 120 -17 22 -28 24 -120 27 -101 4 -101 4 -131 -26z"/>
<path d="M379 3821 c-28 -28 -29 -33 -29 -126 0 -89 2 -98 25 -120 36 -37 86
-37 123 -1 27 26 39 106 27 181 -13 92 -87 125 -146 66z"/>
<path d="M990 2345 c-381 -69 -674 -355 -752 -735 -25 -119 -20 -295 11 -412
86 -327 342 -582 671 -670 121 -32 337 -32 460 0 240 64 462 237 584 455 51
91 94 230 108 346 49 420 -209 832 -610 975 -150 53 -320 68 -472 41z m343
-184 c208 -54 382 -192 483 -385 57 -108 75 -176 81 -311 6 -156 -10 -237 -77
-373 -113 -228 -340 -386 -590 -410 -160 -16 -329 19 -460 95 -37 21 -104 77
-155 128 -77 76 -98 104 -137 185 -61 125 -81 209 -81 340 0 349 227 641 568
730 98 26 267 26 368 1z"/>
<path d="M1080 1966 l0 -73 -43 -17 c-104 -39 -167 -129 -167 -238 0 -122 49
-179 226 -265 63 -30 123 -66 134 -80 24 -31 26 -89 5 -120 -38 -54 -164 -55
-268 -3 -33 17 -61 30 -62 30 -7 0 -56 -151 -52 -157 11 -17 104 -58 157 -68
l55 -12 3 -71 3 -72 74 0 75 0 0 74 0 75 53 24 c110 50 167 132 167 240 0 140
-46 199 -223 287 -67 33 -130 70 -139 81 -10 12 -18 36 -18 55 0 87 116 107
258 44 25 -11 46 -19 47 -18 3 4 55 149 55 152 0 7 -97 45 -143 56 l-47 12 0
69 0 69 -75 0 -75 0 0 -74z"/>
<path d="M3759 2311 l-29 -29 0 -731 0 -731 -826 0 -826 0 -29 -29 c-16 -16
-29 -39 -29 -51 0 -29 26 -76 45 -84 9 -3 388 -6 841 -6 l824 0 0 -185 c0
-201 -5 -224 -56 -264 l-27 -21 -1159 0 c-1005 0 -1163 2 -1188 15 -18 9 -38
34 -54 68 -14 30 -32 60 -41 67 -27 22 -81 17 -110 -10 -68 -64 11 -221 145
-291 l45 -24 1195 0 1195 0 57 28 c67 33 129 99 155 165 17 44 18 108 21 1037
2 545 0 1005 -3 1024 -15 78 -92 106 -146 52z"/>
<path d="M4625 1266 c-28 -28 -40 -94 -32 -173 9 -86 58 -125 122 -99 47 20
55 42 55 146 0 88 -1 93 -29 121 -37 37 -82 39 -116 5z"/>
<path d="M4275 915 c-34 -33 -34 -93 -2 -123 21 -20 34 -22 126 -22 95 0 104
2 126 25 34 33 34 84 -1 119 -25 25 -32 26 -126 26 -92 0 -101 -2 -123 -25z"/>
<path d="M4844 916 c-37 -31 -38 -84 -4 -121 22 -24 29 -25 126 -25 118 0 141
11 151 72 5 32 1 41 -25 68 -30 29 -33 30 -126 30 -85 0 -98 -2 -122 -24z"/>
<path d="M4623 696 c-27 -24 -28 -27 -28 -124 0 -92 2 -102 24 -126 40 -43
111 -35 136 15 18 34 20 180 3 212 -28 53 -88 63 -135 23z"/>
<path d="M2363 484 c-61 -31 -63 -122 -4 -154 31 -16 217 -13 250 5 48 24 56
86 17 132 -23 26 -28 28 -127 31 -81 2 -111 -1 -136 -14z"/>
</g>
</svg>
