<svg width="38" height="38" viewBox="0 0 38 38" fill="none" xmlns="http://www.w3.org/2000/svg">
<path d="M20.643 0.49708C19.008 -0.165693 17.1795 -0.165693 15.5445 0.49708L1.97678 5.99752C0.781848 6.48194 0 7.64256 0 8.93194V26.3973C0 27.6867 0.781848 28.8472 1.97678 29.3318L15.5445 34.8321C15.7985 34.9352 16.0575 35.0222 16.3195 35.0932C16.3383 34.9584 16.3647 34.8225 16.3987 34.6861L17.2269 31.3736C17.52 30.2012 18.1263 29.1304 18.9809 28.276L19.4513 27.8054V15.4291L33.4734 10.0151V15.8677C34.3935 15.8074 35.3249 15.9603 36.1875 16.326V8.93194C36.1875 7.64256 35.4056 6.48194 34.2107 5.99752L20.643 0.49708ZM16.5643 3.01231C17.5451 2.61464 18.6423 2.61464 19.6232 3.01231L31.5511 7.84795L26.7215 9.7127L13.1016 4.41605L16.5643 3.01231ZM9.43537 5.90236L22.964 11.1635L18.0961 13.0431L4.68568 7.82792L9.43537 5.90236ZM2.71406 9.97324L16.7372 15.4267V32.3826C16.6793 32.3621 16.6214 32.3402 16.5643 32.3169L2.99645 26.8166C2.82575 26.7473 2.71406 26.5815 2.71406 26.3973V9.97324ZM30.9401 18.8756L20.2603 29.5554C19.6377 30.178 19.196 30.9582 18.9823 31.8124L18.1542 35.1248C17.7941 36.5655 19.099 37.8702 20.5395 37.5101L23.8519 36.682C24.7061 36.4685 25.4863 36.0266 26.1091 35.404L36.7887 24.7244C38.4038 23.1093 38.4038 20.4908 36.7887 18.8756C35.1737 17.2605 32.5551 17.2605 30.9401 18.8756Z" fill="#454545"/>
</svg>
