<svg width="39" height="39" viewBox="0 0 39 39" fill="none" xmlns="http://www.w3.org/2000/svg">
<path d="M16.7526 0.535714C18.5147 -0.178571 20.4853 -0.178571 22.2474 0.535714L36.8696 6.46365C38.1574 6.98573 39 8.23656 39 9.62615V28.449C39 29.8385 38.1574 31.0893 36.8696 31.6115L22.2474 37.5393C20.4853 38.2536 18.5147 38.2536 16.7526 37.5393L2.13041 31.6115C0.842615 31.0893 0 29.8385 0 28.449V9.62615C0 8.23656 0.842615 6.98573 2.13041 6.46365L16.7526 0.535714ZM21.1483 3.24643C20.0912 2.81786 18.9088 2.81786 17.8517 3.24643L14.1199 4.75928L28.7972 10.4671L34.0022 8.45741L21.1483 3.24643ZM24.7476 12.0307L10.1687 6.3611L5.05107 8.43583L19.5025 14.0559L24.7476 12.0307ZM2.925 28.449C2.925 28.6475 3.04537 28.8261 3.22934 28.9008L17.8517 34.8286C17.9133 34.8537 17.9757 34.8773 18.0381 34.8994V16.6248L2.925 10.7474V28.449ZM21.1483 34.8286L35.7706 28.9008C35.9547 28.8261 36.075 28.6475 36.075 28.449V10.7925L20.9631 16.6273V34.899C21.0253 34.8769 21.0871 34.8535 21.1483 34.8286Z" fill="#454545"/>
</svg>
