<?xml version="1.0" standalone="no"?>
<!DOCTYPE svg PUBLIC "-//W3C//DTD SVG 20010904//EN"
 "http://www.w3.org/TR/2001/REC-SVG-20010904/DTD/svg10.dtd">
<svg version="1.0" xmlns="http://www.w3.org/2000/svg"
 width="20" height="20" viewBox="0 0 512.000000 512.000000"
 preserveAspectRatio="xMidYMid meet">

<g transform="translate(0.000000,512.000000) scale(0.100000,-0.100000)"
fill="#000000" stroke="none">
<path d="M540 4668 c-25 -14 -58 -44 -75 -67 l-30 -43 0 -1816 0 -1817 26 -67
c74 -190 207 -323 397 -397 l67 -26 1816 0 1816 0 39 27 c21 15 50 44 64 65
21 31 25 48 25 113 0 67 -3 81 -27 116 -15 21 -44 50 -65 64 l-37 25 -1770 5
c-1708 5 -1772 6 -1809 24 -51 25 -103 88 -116 141 -6 24 -11 72 -11 107 l0
63 642 642 643 643 265 -263 c279 -278 292 -287 381 -287 82 1 95 12 806 722
l681 681 4 -100 c3 -89 6 -104 30 -139 15 -21 44 -50 65 -64 31 -21 48 -25
113 -25 65 0 82 4 113 25 21 14 50 43 65 64 l27 39 0 397 0 397 -27 39 c-15
21 -44 50 -65 64 l-37 25 -386 3 -386 3 -44 -24 c-25 -13 -58 -43 -75 -66 -27
-39 -30 -50 -30 -120 0 -66 4 -83 25 -114 14 -21 43 -50 64 -65 35 -24 51 -28
138 -32 l98 -5 -595 -595 -595 -595 -267 266 c-248 246 -272 267 -316 278 -52
13 -104 7 -152 -16 -16 -8 -290 -274 -607 -591 l-578 -577 -2 1381 -3 1381
-27 39 c-44 62 -90 88 -167 92 -55 3 -74 -1 -111 -20z"/>
</g>
</svg>
