<svg width="37" height="37" viewBox="0 0 37 38" fill="none" xmlns="http://www.w3.org/2000/svg">
<path d="M31.629 5.49839C28.1677 1.95498 23.4532 0 18.6194 0C8.47419 0 0.179032 8.43087 0.179032 18.8167C0.179032 22.1769 1.01452 25.3537 2.62581 28.2862L0 38L9.84678 35.4341C12.5323 36.9003 15.5758 37.7556 18.679 37.7556C28.7645 37.6945 37 29.2637 37 18.8167C37 13.8071 35.0903 9.1029 31.629 5.49839ZM18.5597 34.5177C15.8742 34.5177 13.0694 33.7235 10.7419 32.2572L10.1452 31.8907L4.35645 33.418L5.96774 27.6752L5.60968 27.0643C4.11774 24.5595 3.28226 21.627 3.28226 18.6945C3.28226 10.0804 10.0855 3.11575 18.5597 3.11575C22.6177 3.11575 26.4371 4.76527 29.3016 7.69775C32.1661 10.6302 33.7774 14.6013 33.7774 18.8167C33.8968 27.5531 26.9742 34.5177 18.5597 34.5177ZM26.9742 22.7878C26.4968 22.5434 24.2887 21.3826 23.7516 21.3215C23.3339 21.1383 22.9758 21.0772 22.7371 21.5659C22.4984 22.0547 21.5436 23.0322 21.3048 23.3987C21.0661 23.6431 20.8274 23.7653 20.2903 23.4598C19.8129 23.2154 18.3806 22.7878 16.5903 21.0772C15.2177 19.8553 14.2629 18.328 14.0839 17.7781C13.8452 17.2894 14.0242 17.1061 14.3226 16.8006C14.5613 16.5563 14.8 16.3119 14.979 15.9453C15.2177 15.701 15.2177 15.4566 15.4565 15.1511C15.6952 14.9068 15.5161 14.5402 15.3968 14.2958C15.2177 14.0515 14.3823 11.7299 13.9645 10.7524C13.6065 9.77492 13.1887 9.9582 12.95 9.9582C12.7113 9.9582 12.3532 9.9582 12.1145 9.9582C11.8758 9.9582 11.279 10.0193 10.921 10.5691C10.5032 11.0579 9.30968 12.2187 9.30968 14.5402C9.30968 16.8617 10.921 19 11.2194 19.4277C11.4581 19.672 14.5016 24.4984 19.0371 26.5756C20.1113 27.0643 20.9468 27.3698 21.6629 27.6142C22.7371 27.9807 23.7516 27.8585 24.5274 27.7974C25.4226 27.7363 27.2129 26.6978 27.6306 25.537C27.9887 24.4984 27.9887 23.4598 27.8694 23.2765C27.75 23.1543 27.3919 22.9711 26.9742 22.7878Z" fill="#454545"/>
</svg>
